<svg width="79" height="30" viewBox="0 0 79 30" fill="none" xmlns="http://www.w3.org/2000/svg">
<path d="M12.5948 8.04672H7.20946C5.25509 8.04672 5.03793 7.09495 5.03793 6.31624C5.03793 4.80207 5.81968 4.15314 7.77405 4.15314H18.1974V0H7.16603C2.30181 0 0 1.99005 0 6.31624C0 10.3396 2.17152 12.2431 6.81858 12.2431H11.6394C13.5069 12.2431 14.1583 12.6757 14.1583 14.1034C14.1583 15.2715 13.724 15.8771 11.3788 15.8771H0.781748V20.0735H12.0302C16.8944 20.0735 19.1963 18.1267 19.1963 13.9303C19.1963 9.73393 17.2853 8.04672 12.5948 8.04672ZM35.5695 0L29.8802 13.7573L24.2776 0H18.8054L27.6218 20.0735H32.3123L40.7378 0H35.5695ZM49.1633 4.10988H56.2424V0H49.0764C42.6053 0 39.5651 3.28791 39.5651 10.3829C39.5651 14.0601 40.6075 16.6126 42.6921 18.2998C44.7768 19.9437 46.7746 20.0735 48.9896 20.0735H56.2424V15.9204H49.1633C46.2534 15.9204 45.0808 14.8388 44.9505 11.9835H56.2424V7.87367H44.994C45.2545 5.32122 46.6009 4.10988 49.1633 4.10988ZM65.6234 0L57.1111 20.0735H62.2793L64.0165 15.4878H71.8774L73.6581 20.0735H79.0434L70.4442 0H65.6234ZM65.58 11.2481L67.8384 5.27795L70.1836 11.2481H65.58Z" fill="#00325C"/>
<path d="M1.60693 23.8806H78.0445C78.5657 23.8806 79 24.3132 79 24.8323V28.1202C79 28.6394 78.5657 29.072 78.0445 29.072H1.60693C1.08576 29.072 0.651459 28.6394 0.651459 28.1202V24.8323C0.651459 24.3132 1.08576 23.8806 1.60693 23.8806Z" fill="#00AECE"/>
</svg>
